{"title":"Lady.Gaga.Born.This.Way.Video.2011.AAC.GRG","uid":6213527,"size":107567210,"categoryP":"video","categoryS":"music_videos","magnet":"?xt=urn:btih:119797468ac6670c9d25fcee142af445905d72a4&amp;dn=Lady.Gaga.Born.This.Way.Video.2011.AAC.GRG&amp;tr=udp%3A%2F%2Ftracker.openbittorrent.com%3A80&amp;tr=udp%3A%2F%2Fopen.demonii.com%3A1337&amp;tr=udp%3A%2F%2Ftracker.coppersurfer.tk%3A6969&amp;tr=udp%3A%2F%2Fexodus.desync.com%3A6969","seeders":0,"leechers":1,"uploader":"kkabukki","files":2,"time":1299075236,"description":"Lady.Gaga.Born.This.Way.Video.2011.AAC.GRG\n\nRelease Information\n\nFormat : MPEG-4\nFormat profile : Base Media / Version 2\nCodec ID : mp42\nFile size : 103 MiB\nDuration : 7mn 19s\nOverall bit rate : 1 957 Kbps\nMovie name : Born This Way\nPerformer : Lady Gaga\nEncoded date : 2011\n\n  Video #1\nID : 1\nFormat : AVC\nFormat/Info : Advanced Video Codec\nFormat profile : &lt;a class=&quot;__cf_email__&quot; href=&quot;/cdn-cgi/l/email-protection&quot; data-cfemail=&quot;9ed6f7f9f6ded2adb0af&quot;&gt;[email&amp;#160;protected]&lt;/a&gt;&lt;script cf-hash='f9e31' type=&quot;text/javascript&quot;&gt;\n/* &lt;![CDATA[ */!function(){try{var t=&quot;currentScript&quot;in document?document.currentScript:function(){for(var t=document.getElementsByTagName(&quot;script&quot;),e=t.length;e--;)if(t[e].getAttribute(&quot;cf-hash&quot;))return t[e]}();if(t&amp;&amp;t.previousSibling){var e,r,n,i,c=t.previousSibling,a=c.getAttribute(&quot;data-cfemail&quot;);if(a){for(e=&quot;&quot;,r=parseInt(a.substr(0,2),16),n=2;a.length-n;n+=2)i=parseInt(a.substr(n,2),16)^r,e+=String.fromCharCode(i);e=document.createTextNode(e),c.parentNode.replaceChild(e,c)}}}catch(u){}}();/* ]]&gt; */&lt;/script&gt;\nFormat settings, CABAC : Yes\nFormat settings, ReFrames : 1 frame\nCodec ID : avc1\nCodec ID/Info : Advanced Video Coding\nDuration : 7mn 19s\nBit rate mode : Variable\nBit rate : 1 826 Kbps\nMaximum bit rate : 5 981 Kbps\nWidth : 1 280 pixels\nHeight : 720 pixels\nDisplay aspect ratio : 16:9\nFrame rate mode : Variable\nFrame rate : 23.976 fps\nMinimum frame rate : 17.241 fps\nMaximum frame rate : 24.390 fps\nResolution : 24 bits\nColorimetry : 4:2:0\nScan type : Progressive\nBits/(Pixel*Frame) : 0.083\nStream size : 95.7 MiB (93%)\nEncoded date : UTC 1970-01-01 00:00:00\nTagged date : UTC 2011-02-27 01:58:23\n\n  Audio #2\nID : 2\nFormat : AAC\nFormat/Info : Advanced Audio Codec\nFormat version : Version 4\nFormat profile : LC\nFormat settings, SBR : No\nCodec ID : 40\nDuration : 7mn 19s\nBit rate mode : Variable\nBit rate : 125 Kbps\nMaximum bit rate : 157 Kbps\nChannel(s) : 2 channels\nChannel positions : L R\nSampling rate : 44.1 KHz\nResolution : 16 bits\nStream size : 6.56 MiB (6%)\nTitle : (C) 2007 Google Inc. v08.13.2007.\nEncoded date : UTC 2011-02-27 01:58:18\nTagged date : UTC 2011-02-27 01:58:23","torrent":{"xt":"urn:btih:119797468ac6670c9d25fcee142af445905d72a4","amp;dn":"Lady.Gaga.Born.This.Way.Video.2011.AAC.GRG","amp;tr":["udp%3A%2F%2Ftracker.openbittorrent.com%3A80","udp%3A%2F%2Fopen.demonii.com%3A1337","udp%3A%2F%2Ftracker.coppersurfer.tk%3A6969","udp%3A%2F%2Fexodus.desync.com%3A6969"],"infoHash":"119797468ac6670c9d25fcee142af445905d72a4","infoHashBuffer":{"type":"Buffer","data":[17,151,151,70,138,198,103,12,157,37,252,238,20,42,244,69,144,93,114,164]},"announce":[],"urlList":[]}}